# xmcd
#
# Track frame offsets:
#	150
#	17576
#	35984
#	48968
#	63830
#	83287
#	95586
#	117130
#	131233
#	150452
#	162515
#	179682
#	190635
#	203923
#	224304
#	242183
#	261184
#
# Disc length: 3700 seconds
#
# Revision: 4
# Processed by: cddbd v1.5.1PL0 Copyright (c) Steve Scherf et al.
# Submitted via: audiograbber 1.82.02
#
DISCID=ea0e7211
DTITLE=Ladánybene27 - Ladánybene27
DYEAR=1900
DGENRE=
TTITLE0=szedegetem
TTITLE1=régi reggae
TTITLE2=hol a gibbon?
TTITLE3=az én napom
TTITLE4=végtelen utazás
TTITLE5=kis józsef
TTITLE6=látlak afrika!
TTITLE7=kisváros
TTITLE8=gyere
TTITLE9=rapge
TTITLE10=valami véget ért
TTITLE11=a szél
TTITLE12=keresem az alkalmat
TTITLE13=ébredj!
TTITLE14=új ska
TTITLE15=üres a ring
TTITLE16=rastafari
EXTD=
EXTT0=
EXTT1=
EXTT2=
EXTT3=
EXTT4=
EXTT5=
EXTT6=
EXTT7=
EXTT8=
EXTT9=
EXTT10=
EXTT11=
EXTT12=
EXTT13=
EXTT14=
EXTT15=
EXTT16=
PLAYORDER=
